G04 #@! TF.GenerationSoftware,KiCad,Pcbnew,9.0.0*
G04 #@! TF.CreationDate,2025-04-08T11:49:15-04:00*
G04 #@! TF.ProjectId,PCB_control,5043425f-636f-46e7-9472-6f6c2e6b6963,rev?*
G04 #@! TF.SameCoordinates,Original*
G04 #@! TF.FileFunction,Paste,Top*
G04 #@! TF.FilePolarity,Positive*
%FSLAX46Y46*%
G04 Gerber Fmt 4.6, Leading zero omitted, Abs format (unit mm)*
G04 Created by KiCad (PCBNEW 9.0.0) date 2025-04-08 11:49:15*
%MOMM*%
%LPD*%
G01*
G04 APERTURE LIST*
G04 Aperture macros list*
%AMRoundRect*
0 Rectangle with rounded corners*
0 $1 Rounding radius*
0 $2 $3 $4 $5 $6 $7 $8 $9 X,Y pos of 4 corners*
0 Add a 4 corners polygon primitive as box body*
4,1,4,$2,$3,$4,$5,$6,$7,$8,$9,$2,$3,0*
0 Add four circle primitives for the rounded corners*
1,1,$1+$1,$2,$3*
1,1,$1+$1,$4,$5*
1,1,$1+$1,$6,$7*
1,1,$1+$1,$8,$9*
0 Add four rect primitives between the rounded corners*
20,1,$1+$1,$2,$3,$4,$5,0*
20,1,$1+$1,$4,$5,$6,$7,0*
20,1,$1+$1,$6,$7,$8,$9,0*
20,1,$1+$1,$8,$9,$2,$3,0*%
G04 Aperture macros list end*
%ADD10RoundRect,0.250000X-0.400000X-0.625000X0.400000X-0.625000X0.400000X0.625000X-0.400000X0.625000X0*%
%ADD11RoundRect,0.250000X-0.625000X0.400000X-0.625000X-0.400000X0.625000X-0.400000X0.625000X0.400000X0*%
%ADD12RoundRect,0.250000X-0.300000X2.050000X-0.300000X-2.050000X0.300000X-2.050000X0.300000X2.050000X0*%
%ADD13RoundRect,0.250000X-2.375000X2.025000X-2.375000X-2.025000X2.375000X-2.025000X2.375000X2.025000X0*%
%ADD14RoundRect,0.250000X0.625000X-0.400000X0.625000X0.400000X-0.625000X0.400000X-0.625000X-0.400000X0*%
%ADD15RoundRect,0.100000X0.637500X0.100000X-0.637500X0.100000X-0.637500X-0.100000X0.637500X-0.100000X0*%
%ADD16RoundRect,0.150000X-0.825000X-0.150000X0.825000X-0.150000X0.825000X0.150000X-0.825000X0.150000X0*%
%ADD17RoundRect,0.100000X0.100000X-0.637500X0.100000X0.637500X-0.100000X0.637500X-0.100000X-0.637500X0*%
%ADD18R,2.900000X5.400000*%
%ADD19RoundRect,0.250000X0.400000X0.625000X-0.400000X0.625000X-0.400000X-0.625000X0.400000X-0.625000X0*%
G04 APERTURE END LIST*
D10*
X155275000Y-97625000D03*
X158375000Y-97625000D03*
X104615000Y-97515000D03*
X107715000Y-97515000D03*
D11*
X150015000Y-114040000D03*
X150015000Y-117140000D03*
D10*
X32075000Y-85685000D03*
X35175000Y-85685000D03*
D12*
X99040000Y-112065000D03*
X97340000Y-112065000D03*
X95640000Y-112065000D03*
D13*
X98415000Y-118790000D03*
X92865000Y-118790000D03*
X98415000Y-123640000D03*
X92865000Y-123640000D03*
D12*
X93940000Y-112065000D03*
X92240000Y-112065000D03*
D14*
X137682750Y-70607750D03*
X137682750Y-67507750D03*
D10*
X155300000Y-92475000D03*
X158400000Y-92475000D03*
D14*
X85640000Y-94465000D03*
X85640000Y-91365000D03*
X119557750Y-70532750D03*
X119557750Y-67432750D03*
X82350000Y-69850600D03*
X82350000Y-66750600D03*
X63434900Y-69816100D03*
X63434900Y-66716100D03*
D10*
X150090000Y-108165000D03*
X153190000Y-108165000D03*
X151507750Y-66332750D03*
X154607750Y-66332750D03*
D11*
X134040000Y-113765000D03*
X134040000Y-116865000D03*
D15*
X93795250Y-84857750D03*
X93795250Y-84207750D03*
X93795250Y-83557750D03*
X93795250Y-82907750D03*
X93795250Y-82257750D03*
X93795250Y-81607750D03*
X93795250Y-80957750D03*
X93795250Y-80307750D03*
X93795250Y-79657750D03*
X93795250Y-79007750D03*
X93795250Y-78357750D03*
X93795250Y-77707750D03*
X93795250Y-77057750D03*
X93795250Y-76407750D03*
X88070250Y-76407750D03*
X88070250Y-77057750D03*
X88070250Y-77707750D03*
X88070250Y-78357750D03*
X88070250Y-79007750D03*
X88070250Y-79657750D03*
X88070250Y-80307750D03*
X88070250Y-80957750D03*
X88070250Y-81607750D03*
X88070250Y-82257750D03*
X88070250Y-82907750D03*
X88070250Y-83557750D03*
X88070250Y-84207750D03*
X88070250Y-84857750D03*
D11*
X128815000Y-113715000D03*
X128815000Y-116815000D03*
D14*
X71390000Y-94390000D03*
X71390000Y-91290000D03*
X133900000Y-95750000D03*
X133900000Y-92650000D03*
X74140000Y-94390000D03*
X74140000Y-91290000D03*
D16*
X76065000Y-97015000D03*
X76065000Y-98285000D03*
X76065000Y-99555000D03*
X76065000Y-100825000D03*
X76065000Y-102095000D03*
X76065000Y-103365000D03*
X76065000Y-104635000D03*
X81015000Y-104635000D03*
X81015000Y-103365000D03*
X81015000Y-102095000D03*
X81015000Y-100825000D03*
X81015000Y-99555000D03*
X81015000Y-98285000D03*
X81015000Y-97015000D03*
D14*
X100725500Y-70300500D03*
X100725500Y-67200500D03*
D11*
X147365000Y-114040000D03*
X147365000Y-117140000D03*
X144765000Y-113990000D03*
X144765000Y-117090000D03*
D17*
X132490000Y-107202500D03*
X133140000Y-107202500D03*
X133790000Y-107202500D03*
X134440000Y-107202500D03*
X135090000Y-107202500D03*
X135740000Y-107202500D03*
X136390000Y-107202500D03*
X137040000Y-107202500D03*
X137690000Y-107202500D03*
X138340000Y-107202500D03*
X138990000Y-107202500D03*
X139640000Y-107202500D03*
X140290000Y-107202500D03*
X140940000Y-107202500D03*
X140940000Y-101477500D03*
X140290000Y-101477500D03*
X139640000Y-101477500D03*
X138990000Y-101477500D03*
X138340000Y-101477500D03*
X137690000Y-101477500D03*
X137040000Y-101477500D03*
X136390000Y-101477500D03*
X135740000Y-101477500D03*
X135090000Y-101477500D03*
X134440000Y-101477500D03*
X133790000Y-101477500D03*
X133140000Y-101477500D03*
X132490000Y-101477500D03*
D10*
X155300000Y-95025000D03*
X158400000Y-95025000D03*
D14*
X30857750Y-79332750D03*
X30857750Y-76232750D03*
D18*
X100190000Y-101740000D03*
X90490000Y-101740000D03*
D14*
X82940000Y-94465000D03*
X82940000Y-91365000D03*
D10*
X150075000Y-101575000D03*
X153175000Y-101575000D03*
D19*
X80065000Y-107790000D03*
X76965000Y-107790000D03*
D14*
X45032750Y-69725600D03*
X45032750Y-66625600D03*
X137525000Y-95775000D03*
X137525000Y-92675000D03*
D11*
X131390000Y-113715000D03*
X131390000Y-116815000D03*
D10*
X161575000Y-32450000D03*
X164675000Y-32450000D03*
X150050000Y-105225000D03*
X153150000Y-105225000D03*
M02*
