G04 #@! TF.GenerationSoftware,KiCad,Pcbnew,9.0.0*
G04 #@! TF.CreationDate,2025-04-08T11:49:15-04:00*
G04 #@! TF.ProjectId,PCB_control,5043425f-636f-46e7-9472-6f6c2e6b6963,rev?*
G04 #@! TF.SameCoordinates,Original*
G04 #@! TF.FileFunction,Legend,Bot*
G04 #@! TF.FilePolarity,Positive*
%FSLAX46Y46*%
G04 Gerber Fmt 4.6, Leading zero omitted, Abs format (unit mm)*
G04 Created by KiCad (PCBNEW 9.0.0) date 2025-04-08 11:49:15*
%MOMM*%
%LPD*%
G01*
G04 APERTURE LIST*
G04 Aperture macros list*
%AMRoundRect*
0 Rectangle with rounded corners*
0 $1 Rounding radius*
0 $2 $3 $4 $5 $6 $7 $8 $9 X,Y pos of 4 corners*
0 Add a 4 corners polygon primitive as box body*
4,1,4,$2,$3,$4,$5,$6,$7,$8,$9,$2,$3,0*
0 Add four circle primitives for the rounded corners*
1,1,$1+$1,$2,$3*
1,1,$1+$1,$4,$5*
1,1,$1+$1,$6,$7*
1,1,$1+$1,$8,$9*
0 Add four rect primitives between the rounded corners*
20,1,$1+$1,$2,$3,$4,$5,0*
20,1,$1+$1,$4,$5,$6,$7,0*
20,1,$1+$1,$6,$7,$8,$9,0*
20,1,$1+$1,$8,$9,$2,$3,0*%
%AMFreePoly0*
4,1,23,0.550000,-0.750000,0.000000,-0.750000,0.000000,-0.745722,-0.065263,-0.745722,-0.191342,-0.711940,-0.304381,-0.646677,-0.396677,-0.554381,-0.461940,-0.441342,-0.495722,-0.315263,-0.495722,-0.250000,-0.500000,-0.250000,-0.500000,0.250000,-0.495722,0.250000,-0.495722,0.315263,-0.461940,0.441342,-0.396677,0.554381,-0.304381,0.646677,-0.191342,0.711940,-0.065263,0.745722,0.000000,0.745722,
0.000000,0.750000,0.550000,0.750000,0.550000,-0.750000,0.550000,-0.750000,$1*%
%AMFreePoly1*
4,1,23,0.000000,0.745722,0.065263,0.745722,0.191342,0.711940,0.304381,0.646677,0.396677,0.554381,0.461940,0.441342,0.495722,0.315263,0.495722,0.250000,0.500000,0.250000,0.500000,-0.250000,0.495722,-0.250000,0.495722,-0.315263,0.461940,-0.441342,0.396677,-0.554381,0.304381,-0.646677,0.191342,-0.711940,0.065263,-0.745722,0.000000,-0.745722,0.000000,-0.750000,-0.550000,-0.750000,
-0.550000,0.750000,0.000000,0.750000,0.000000,0.745722,0.000000,0.745722,$1*%
G04 Aperture macros list end*
%ADD10C,0.300000*%
%ADD11C,0.150000*%
%ADD12C,0.120000*%
%ADD13C,1.500000*%
%ADD14C,3.000000*%
%ADD15RoundRect,0.250001X-0.499999X-0.499999X0.499999X-0.499999X0.499999X0.499999X-0.499999X0.499999X0*%
%ADD16FreePoly0,270.000000*%
%ADD17R,1.500000X1.000000*%
%ADD18FreePoly1,270.000000*%
%ADD19RoundRect,0.250000X0.600000X0.750000X-0.600000X0.750000X-0.600000X-0.750000X0.600000X-0.750000X0*%
%ADD20O,1.700000X2.000000*%
%ADD21RoundRect,0.250000X0.600000X0.725000X-0.600000X0.725000X-0.600000X-0.725000X0.600000X-0.725000X0*%
%ADD22O,1.700000X1.950000*%
%ADD23RoundRect,0.250000X-0.600000X-0.750000X0.600000X-0.750000X0.600000X0.750000X-0.600000X0.750000X0*%
%ADD24R,1.500000X1.050000*%
%ADD25O,1.500000X1.050000*%
%ADD26R,1.803400X1.803400*%
%ADD27C,1.803400*%
%ADD28RoundRect,0.250000X0.725000X-0.600000X0.725000X0.600000X-0.725000X0.600000X-0.725000X-0.600000X0*%
%ADD29O,1.950000X1.700000*%
%ADD30R,1.320800X1.320800*%
%ADD31C,1.320800*%
%ADD32R,2.600000X2.600000*%
%ADD33O,2.600000X2.600000*%
%ADD34R,1.600000X1.600000*%
%ADD35C,1.600000*%
%ADD36C,2.159000*%
%ADD37RoundRect,0.250000X-0.600000X-0.725000X0.600000X-0.725000X0.600000X0.725000X-0.600000X0.725000X0*%
%ADD38RoundRect,0.250000X-0.725000X0.600000X-0.725000X-0.600000X0.725000X-0.600000X0.725000X0.600000X0*%
%ADD39R,1.524000X1.524000*%
%ADD40C,1.524000*%
%ADD41RoundRect,0.250000X-0.750000X0.600000X-0.750000X-0.600000X0.750000X-0.600000X0.750000X0.600000X0*%
%ADD42O,2.000000X1.700000*%
G04 APERTURE END LIST*
D10*
X147600000Y-21360000D02*
X147602359Y-24659999D01*
X147603217Y-25859999D02*
X147605575Y-29159998D01*
X147606433Y-30359998D02*
X147608792Y-33659997D01*
X147609650Y-34859997D02*
X147610000Y-35350000D01*
X149630000Y-38770000D02*
X149631639Y-42070000D01*
X149632235Y-43269999D02*
X149633875Y-46569999D01*
X149634471Y-47769999D02*
X149636110Y-51069998D01*
X149636706Y-52269998D02*
X149638346Y-55569998D01*
X149638942Y-56769998D02*
X149639999Y-58900000D01*
X147610000Y-35350000D02*
X149288247Y-38191388D01*
X149640000Y-58900000D02*
X146340007Y-58893103D01*
X145140010Y-58890595D02*
X141840017Y-58883698D01*
X140640020Y-58881191D02*
X137340027Y-58874294D01*
X136140029Y-58871786D02*
X132840037Y-58864889D01*
X131640039Y-58862381D02*
X128340047Y-58855484D01*
X127140049Y-58852976D02*
X123840056Y-58846080D01*
X122640059Y-58843572D02*
X119340066Y-58836675D01*
X118140069Y-58834167D02*
X114840076Y-58827270D01*
X113640079Y-58824762D02*
X110340086Y-58817865D01*
X109140088Y-58815357D02*
X105840096Y-58808461D01*
X104640098Y-58805953D02*
X101340105Y-58799056D01*
X100140108Y-58796548D02*
X96840115Y-58789651D01*
X95640118Y-58787143D02*
X92340125Y-58780246D01*
X91140128Y-58777738D02*
X87840135Y-58770842D01*
X86640138Y-58768334D02*
X83340145Y-58761437D01*
X82140147Y-58758929D02*
X78840155Y-58752032D01*
X77640157Y-58749524D02*
X74340164Y-58742627D01*
X73140167Y-58740120D02*
X69840174Y-58733223D01*
X68640177Y-58730715D02*
X65340184Y-58723818D01*
X64140187Y-58721310D02*
X60840194Y-58714413D01*
X59640197Y-58711905D02*
X56340204Y-58705009D01*
X55140206Y-58702501D02*
X51840214Y-58695604D01*
X50640216Y-58693096D02*
X47340223Y-58686199D01*
X46140226Y-58683691D02*
X42840233Y-58676794D01*
X41640236Y-58674286D02*
X38340243Y-58667390D01*
X37140246Y-58664882D02*
X33840253Y-58657985D01*
X32640256Y-58655477D02*
X29340263Y-58648580D01*
X28140265Y-58646072D02*
X24840273Y-58639175D01*
X23640275Y-58636667D02*
X20450000Y-58630001D01*
D11*
X23173333Y-38804819D02*
X23173333Y-39519104D01*
X23173333Y-39519104D02*
X23220952Y-39661961D01*
X23220952Y-39661961D02*
X23316190Y-39757200D01*
X23316190Y-39757200D02*
X23459047Y-39804819D01*
X23459047Y-39804819D02*
X23554285Y-39804819D01*
X22697142Y-39804819D02*
X22697142Y-38804819D01*
X22697142Y-38804819D02*
X22316190Y-38804819D01*
X22316190Y-38804819D02*
X22220952Y-38852438D01*
X22220952Y-38852438D02*
X22173333Y-38900057D01*
X22173333Y-38900057D02*
X22125714Y-38995295D01*
X22125714Y-38995295D02*
X22125714Y-39138152D01*
X22125714Y-39138152D02*
X22173333Y-39233390D01*
X22173333Y-39233390D02*
X22220952Y-39281009D01*
X22220952Y-39281009D02*
X22316190Y-39328628D01*
X22316190Y-39328628D02*
X22697142Y-39328628D01*
X21268571Y-39138152D02*
X21268571Y-39804819D01*
X21506666Y-38757200D02*
X21744761Y-39471485D01*
X21744761Y-39471485D02*
X21125714Y-39471485D01*
X22794819Y-40685714D02*
X22794819Y-40114286D01*
X22794819Y-40400000D02*
X21794819Y-40400000D01*
X21794819Y-40400000D02*
X21937676Y-40304762D01*
X21937676Y-40304762D02*
X22032914Y-40209524D01*
X22032914Y-40209524D02*
X22080533Y-40114286D01*
X21794819Y-45266667D02*
X21794819Y-45885714D01*
X21794819Y-45885714D02*
X22175771Y-45552381D01*
X22175771Y-45552381D02*
X22175771Y-45695238D01*
X22175771Y-45695238D02*
X22223390Y-45790476D01*
X22223390Y-45790476D02*
X22271009Y-45838095D01*
X22271009Y-45838095D02*
X22366247Y-45885714D01*
X22366247Y-45885714D02*
X22604342Y-45885714D01*
X22604342Y-45885714D02*
X22699580Y-45838095D01*
X22699580Y-45838095D02*
X22747200Y-45790476D01*
X22747200Y-45790476D02*
X22794819Y-45695238D01*
X22794819Y-45695238D02*
X22794819Y-45409524D01*
X22794819Y-45409524D02*
X22747200Y-45314286D01*
X22747200Y-45314286D02*
X22699580Y-45266667D01*
D12*
X22640000Y-40950000D02*
X22040000Y-40950000D01*
X21340000Y-41600000D02*
X21340000Y-44400000D01*
X23340000Y-44400000D02*
X23340000Y-41600000D01*
X22040000Y-45050000D02*
X22640000Y-45050000D01*
X21340000Y-41650000D02*
G75*
G02*
X22040000Y-40950000I699999J1D01*
G01*
X22640000Y-40950000D02*
G75*
G02*
X23340000Y-41650000I1J-699999D01*
G01*
X22040000Y-45050000D02*
G75*
G02*
X21340000Y-44350000I0J700000D01*
G01*
X23340000Y-44350000D02*
G75*
G02*
X22640000Y-45050000I-700000J0D01*
G01*
%LPC*%
G36*
X21590000Y-42250000D02*
G01*
X23090000Y-42250000D01*
X23090000Y-43750000D01*
X21590000Y-43750000D01*
X21590000Y-42250000D01*
G37*
D13*
X41130000Y-33120000D03*
D14*
X41130000Y-25800000D03*
D15*
X41130000Y-30120000D03*
D16*
X22340000Y-41700000D03*
D17*
X22340000Y-43000000D03*
D18*
X22340000Y-44300000D03*
D19*
X115590000Y-97540000D03*
D20*
X113090000Y-97540000D03*
D21*
X133990000Y-122640000D03*
D22*
X131490000Y-122640000D03*
X128990000Y-122640000D03*
X126490000Y-122640000D03*
D23*
X113065000Y-114965000D03*
D20*
X115565000Y-114965000D03*
D14*
X101175000Y-26000000D03*
D15*
X101175000Y-30320000D03*
D13*
X101175000Y-33320000D03*
D24*
X67499900Y-66971100D03*
D25*
X67499900Y-68241100D03*
X67499900Y-69511100D03*
D19*
X154075000Y-28525000D03*
D20*
X151575000Y-28525000D03*
D26*
X103009500Y-56307750D03*
D27*
X109003900Y-54301150D03*
X109003900Y-42109150D03*
X97015100Y-42109150D03*
X97015100Y-54301150D03*
D28*
X159550000Y-67575000D03*
D29*
X159550000Y-65075000D03*
X159550000Y-62575000D03*
D19*
X118250000Y-85325000D03*
D20*
X115750000Y-85325000D03*
D14*
X126733214Y-26000000D03*
D15*
X126733214Y-30320000D03*
D13*
X126733214Y-33320000D03*
D24*
X152682750Y-60157750D03*
D25*
X152682750Y-61427750D03*
X152682750Y-62697750D03*
D30*
X96459400Y-92200000D03*
D31*
X91379400Y-92200000D03*
D32*
X25262750Y-71307750D03*
D33*
X40502750Y-71307750D03*
D34*
X105515000Y-112482621D03*
D35*
X105515000Y-114982621D03*
D14*
X79504107Y-26025000D03*
D15*
X79504107Y-30345000D03*
D13*
X79504107Y-33345000D03*
D24*
X123522750Y-67562750D03*
D25*
X123522750Y-68832750D03*
X123522750Y-70102750D03*
D32*
X39555000Y-61775600D03*
D33*
X54795000Y-61775600D03*
D32*
X132374000Y-62107750D03*
D33*
X147614000Y-62107750D03*
D36*
X144400000Y-82175000D03*
X152000000Y-82175000D03*
D26*
X121476750Y-56307750D03*
D27*
X127471150Y-54301150D03*
X127471150Y-42109150D03*
X115482350Y-42109150D03*
X115482350Y-54301150D03*
D37*
X38215000Y-122115000D03*
D22*
X40715000Y-122115000D03*
X43215000Y-122115000D03*
X45715000Y-122115000D03*
X48215000Y-122115000D03*
X50715000Y-122115000D03*
X53215000Y-122115000D03*
X55715000Y-122115000D03*
X58215000Y-122115000D03*
X60715000Y-122115000D03*
X63215000Y-122115000D03*
X65715000Y-122115000D03*
X68215000Y-122115000D03*
X70715000Y-122115000D03*
X73215000Y-122115000D03*
X75715000Y-122115000D03*
X78215000Y-122115000D03*
X80715000Y-122115000D03*
X83215000Y-122115000D03*
X85715000Y-122115000D03*
D38*
X164300000Y-102625000D03*
D29*
X164300000Y-105125000D03*
X164300000Y-107625000D03*
X164300000Y-110125000D03*
D26*
X65594400Y-55966100D03*
D27*
X71588800Y-53959500D03*
X71588800Y-41767500D03*
X59600000Y-41767500D03*
X59600000Y-53959500D03*
D19*
X115590000Y-106240000D03*
D20*
X113090000Y-106240000D03*
D39*
X63630000Y-92190000D03*
D40*
X61090000Y-92190000D03*
X58550000Y-92190000D03*
X56010000Y-92190000D03*
X53470000Y-92190000D03*
X50930000Y-92190000D03*
X48390000Y-92190000D03*
X45850000Y-92190000D03*
X43310000Y-92190000D03*
X40770000Y-92190000D03*
X38230000Y-92190000D03*
X35690000Y-92190000D03*
X33150000Y-92190000D03*
X30610000Y-92190000D03*
X28070000Y-92190000D03*
X25530000Y-92190000D03*
X22990000Y-92190000D03*
X63630000Y-115050000D03*
X61090000Y-115050000D03*
X58550000Y-115050000D03*
X56010000Y-115050000D03*
X53470000Y-115050000D03*
X50930000Y-115050000D03*
X48390000Y-115050000D03*
X45850000Y-115050000D03*
X43310000Y-115050000D03*
X40770000Y-115050000D03*
X38230000Y-115050000D03*
X35690000Y-115050000D03*
X33150000Y-115050000D03*
X30610000Y-115050000D03*
X28070000Y-115050000D03*
X25530000Y-115050000D03*
X22990000Y-115050000D03*
D24*
X48982750Y-66925600D03*
D25*
X48982750Y-68195600D03*
X48982750Y-69465600D03*
D23*
X144700000Y-93775000D03*
D20*
X147200000Y-93775000D03*
D30*
X123390000Y-101465000D03*
D31*
X128470000Y-101465000D03*
D19*
X127800000Y-85325000D03*
D20*
X125300000Y-85325000D03*
D32*
X58024400Y-61766100D03*
D33*
X73264400Y-61766100D03*
D24*
X104807750Y-67442750D03*
D25*
X104807750Y-68712750D03*
X104807750Y-69982750D03*
D24*
X141797750Y-67657750D03*
D25*
X141797750Y-68927750D03*
X141797750Y-70197750D03*
D26*
X47125000Y-55975600D03*
D27*
X53119400Y-53969000D03*
X53119400Y-41777000D03*
X41130600Y-41777000D03*
X41130600Y-53969000D03*
D24*
X40490000Y-76330000D03*
D25*
X40490000Y-77600000D03*
X40490000Y-78870000D03*
D14*
X53945893Y-25790000D03*
D15*
X53945893Y-30110000D03*
D13*
X53945893Y-33110000D03*
D23*
X123940000Y-93965000D03*
D20*
X126440000Y-93965000D03*
D30*
X32390000Y-119730600D03*
D31*
X32390000Y-124810600D03*
D32*
X119225000Y-123000000D03*
D33*
X103985000Y-123000000D03*
D26*
X84350000Y-56125600D03*
D27*
X90344400Y-54119000D03*
X90344400Y-41927000D03*
X78355600Y-41927000D03*
X78355600Y-54119000D03*
D28*
X159625000Y-79375000D03*
D29*
X159625000Y-76875000D03*
X159625000Y-74375000D03*
D26*
X139944000Y-56307750D03*
D27*
X145938400Y-54301150D03*
X145938400Y-42109150D03*
X133949600Y-42109150D03*
X133949600Y-54301150D03*
D32*
X153082750Y-39987750D03*
D33*
X153082750Y-55227750D03*
D24*
X34747750Y-76437750D03*
D25*
X34747750Y-77707750D03*
X34747750Y-78977750D03*
D28*
X159550000Y-55475000D03*
D29*
X159550000Y-52975000D03*
X159550000Y-50475000D03*
D24*
X39815000Y-85105000D03*
D25*
X39815000Y-86375000D03*
X39815000Y-87645000D03*
D14*
X139512321Y-26000000D03*
D15*
X139512321Y-30320000D03*
D13*
X139512321Y-33320000D03*
D32*
X95439500Y-62107750D03*
D33*
X110679500Y-62107750D03*
D19*
X137425000Y-85350000D03*
D20*
X134925000Y-85350000D03*
D34*
X84790000Y-111940000D03*
D35*
X84790000Y-115440000D03*
D38*
X164300000Y-87950000D03*
D29*
X164300000Y-90450000D03*
X164300000Y-92950000D03*
X164300000Y-95450000D03*
D32*
X113906750Y-62107750D03*
D33*
X129146750Y-62107750D03*
D19*
X108900000Y-85325000D03*
D20*
X106400000Y-85325000D03*
D27*
X26795250Y-40462948D03*
X34295250Y-65462950D03*
X34295250Y-50462948D03*
X34295250Y-45462948D03*
X34295250Y-40462948D03*
X26795250Y-45462948D03*
X26795250Y-50462948D03*
X26795250Y-65462950D03*
D41*
X25525000Y-82725000D03*
D42*
X25525000Y-85225000D03*
D19*
X50525000Y-78750000D03*
D20*
X48025000Y-78750000D03*
D24*
X86375000Y-67025600D03*
D25*
X86375000Y-68295600D03*
X86375000Y-69565600D03*
D32*
X60120000Y-86575000D03*
D33*
X44880000Y-86575000D03*
D30*
X78440000Y-92774400D03*
D31*
X78440000Y-87694400D03*
D14*
X66725000Y-26025000D03*
D15*
X66725000Y-30345000D03*
D13*
X66725000Y-33345000D03*
D32*
X76780000Y-61925600D03*
D33*
X92020000Y-61925600D03*
D21*
X149990000Y-122590000D03*
D22*
X147490000Y-122590000D03*
X144990000Y-122590000D03*
X142490000Y-122590000D03*
D14*
X113954107Y-26000000D03*
D15*
X113954107Y-30320000D03*
D13*
X113954107Y-33320000D03*
D28*
X159625000Y-43525000D03*
D29*
X159625000Y-41025000D03*
X159625000Y-38525000D03*
D19*
X108850000Y-77625000D03*
D20*
X106350000Y-77625000D03*
%LPD*%
M02*
