%TF.GenerationSoftware,KiCad,Pcbnew,9.0.0*%
%TF.CreationDate,2025-04-08T11:49:49-04:00*%
%TF.ProjectId,PCB_control,5043425f-636f-46e7-9472-6f6c2e6b6963,rev?*%
%TF.SameCoordinates,Original*%
%TF.FileFunction,Drillmap*%
%TF.FilePolarity,Positive*%
%FSLAX45Y45*%
G04 Gerber Fmt 4.5, Leading zero omitted, Abs format (unit mm)*
G04 Created by KiCad (PCBNEW 9.0.0) date 2025-04-08 11:49:49*
%MOMM*%
%LPD*%
G01*
G04 APERTURE LIST*
%ADD10C,0.200000*%
%ADD11C,0.300000*%
G04 APERTURE END LIST*
D10*
X2700000Y-2500000D02*
G75*
G02*
X2300000Y-2500000I-200000J0D01*
G01*
X2300000Y-2500000D02*
G75*
G02*
X2700000Y-2500000I200000J0D01*
G01*
X2000000Y-2000000D02*
X17000000Y-2000000D01*
X17000000Y-13000000D01*
X2000000Y-13000000D01*
X2000000Y-2000000D01*
X2700000Y-12500000D02*
G75*
G02*
X2300000Y-12500000I-200000J0D01*
G01*
X2300000Y-12500000D02*
G75*
G02*
X2700000Y-12500000I200000J0D01*
G01*
X16700000Y-12500000D02*
G75*
G02*
X16300000Y-12500000I-200000J0D01*
G01*
X16300000Y-12500000D02*
G75*
G02*
X16700000Y-12500000I200000J0D01*
G01*
X16700000Y-2500000D02*
G75*
G02*
X16300000Y-2500000I-200000J0D01*
G01*
X16300000Y-2500000D02*
G75*
G02*
X16700000Y-2500000I200000J0D01*
G01*
D11*
X3963000Y-2430000D02*
X4263000Y-2730000D01*
X4263000Y-2430000D02*
X3963000Y-2730000D01*
X5244589Y-2429000D02*
X5544589Y-2729000D01*
X5544589Y-2429000D02*
X5244589Y-2729000D01*
X6522500Y-2452500D02*
X6822500Y-2752500D01*
X6822500Y-2452500D02*
X6522500Y-2752500D01*
X7800411Y-2452500D02*
X8100411Y-2752500D01*
X8100411Y-2452500D02*
X7800411Y-2752500D01*
X9967500Y-2450000D02*
X10267500Y-2750000D01*
X10267500Y-2450000D02*
X9967500Y-2750000D01*
X11245411Y-2450000D02*
X11545411Y-2750000D01*
X11545411Y-2450000D02*
X11245411Y-2750000D01*
X12523321Y-2450000D02*
X12823321Y-2750000D01*
X12823321Y-2450000D02*
X12523321Y-2750000D01*
X13801232Y-2450000D02*
X14101232Y-2750000D01*
X14101232Y-2450000D02*
X13801232Y-2750000D01*
D10*
X2250777Y-13321484D02*
X2250777Y-13121484D01*
X2250777Y-13121484D02*
X2298396Y-13121484D01*
X2298396Y-13121484D02*
X2326967Y-13131008D01*
X2326967Y-13131008D02*
X2346015Y-13150055D01*
X2346015Y-13150055D02*
X2355539Y-13169103D01*
X2355539Y-13169103D02*
X2365063Y-13207198D01*
X2365063Y-13207198D02*
X2365063Y-13235769D01*
X2365063Y-13235769D02*
X2355539Y-13273865D01*
X2355539Y-13273865D02*
X2346015Y-13292912D01*
X2346015Y-13292912D02*
X2326967Y-13311960D01*
X2326967Y-13311960D02*
X2298396Y-13321484D01*
X2298396Y-13321484D02*
X2250777Y-13321484D01*
X2450777Y-13321484D02*
X2450777Y-13188150D01*
X2450777Y-13226246D02*
X2460301Y-13207198D01*
X2460301Y-13207198D02*
X2469824Y-13197674D01*
X2469824Y-13197674D02*
X2488872Y-13188150D01*
X2488872Y-13188150D02*
X2507920Y-13188150D01*
X2574586Y-13321484D02*
X2574586Y-13188150D01*
X2574586Y-13121484D02*
X2565063Y-13131008D01*
X2565063Y-13131008D02*
X2574586Y-13140531D01*
X2574586Y-13140531D02*
X2584110Y-13131008D01*
X2584110Y-13131008D02*
X2574586Y-13121484D01*
X2574586Y-13121484D02*
X2574586Y-13140531D01*
X2698396Y-13321484D02*
X2679348Y-13311960D01*
X2679348Y-13311960D02*
X2669824Y-13292912D01*
X2669824Y-13292912D02*
X2669824Y-13121484D01*
X2803158Y-13321484D02*
X2784110Y-13311960D01*
X2784110Y-13311960D02*
X2774586Y-13292912D01*
X2774586Y-13292912D02*
X2774586Y-13121484D01*
X3031729Y-13321484D02*
X3031729Y-13121484D01*
X3031729Y-13121484D02*
X3098396Y-13264341D01*
X3098396Y-13264341D02*
X3165062Y-13121484D01*
X3165062Y-13121484D02*
X3165062Y-13321484D01*
X3346015Y-13321484D02*
X3346015Y-13216722D01*
X3346015Y-13216722D02*
X3336491Y-13197674D01*
X3336491Y-13197674D02*
X3317443Y-13188150D01*
X3317443Y-13188150D02*
X3279348Y-13188150D01*
X3279348Y-13188150D02*
X3260301Y-13197674D01*
X3346015Y-13311960D02*
X3326967Y-13321484D01*
X3326967Y-13321484D02*
X3279348Y-13321484D01*
X3279348Y-13321484D02*
X3260301Y-13311960D01*
X3260301Y-13311960D02*
X3250777Y-13292912D01*
X3250777Y-13292912D02*
X3250777Y-13273865D01*
X3250777Y-13273865D02*
X3260301Y-13254817D01*
X3260301Y-13254817D02*
X3279348Y-13245293D01*
X3279348Y-13245293D02*
X3326967Y-13245293D01*
X3326967Y-13245293D02*
X3346015Y-13235769D01*
X3441253Y-13188150D02*
X3441253Y-13388150D01*
X3441253Y-13197674D02*
X3460301Y-13188150D01*
X3460301Y-13188150D02*
X3498396Y-13188150D01*
X3498396Y-13188150D02*
X3517443Y-13197674D01*
X3517443Y-13197674D02*
X3526967Y-13207198D01*
X3526967Y-13207198D02*
X3536491Y-13226246D01*
X3536491Y-13226246D02*
X3536491Y-13283388D01*
X3536491Y-13283388D02*
X3526967Y-13302436D01*
X3526967Y-13302436D02*
X3517443Y-13311960D01*
X3517443Y-13311960D02*
X3498396Y-13321484D01*
X3498396Y-13321484D02*
X3460301Y-13321484D01*
X3460301Y-13321484D02*
X3441253Y-13311960D01*
X3622205Y-13302436D02*
X3631729Y-13311960D01*
X3631729Y-13311960D02*
X3622205Y-13321484D01*
X3622205Y-13321484D02*
X3612682Y-13311960D01*
X3612682Y-13311960D02*
X3622205Y-13302436D01*
X3622205Y-13302436D02*
X3622205Y-13321484D01*
X3622205Y-13197674D02*
X3631729Y-13207198D01*
X3631729Y-13207198D02*
X3622205Y-13216722D01*
X3622205Y-13216722D02*
X3612682Y-13207198D01*
X3612682Y-13207198D02*
X3622205Y-13197674D01*
X3622205Y-13197674D02*
X3622205Y-13216722D01*
X1790000Y-13550000D02*
X1990000Y-13750000D01*
X1990000Y-13550000D02*
X1790000Y-13750000D01*
X2231729Y-13541484D02*
X2355539Y-13541484D01*
X2355539Y-13541484D02*
X2288872Y-13617674D01*
X2288872Y-13617674D02*
X2317444Y-13617674D01*
X2317444Y-13617674D02*
X2336491Y-13627198D01*
X2336491Y-13627198D02*
X2346015Y-13636722D01*
X2346015Y-13636722D02*
X2355539Y-13655769D01*
X2355539Y-13655769D02*
X2355539Y-13703388D01*
X2355539Y-13703388D02*
X2346015Y-13722436D01*
X2346015Y-13722436D02*
X2336491Y-13731960D01*
X2336491Y-13731960D02*
X2317444Y-13741484D01*
X2317444Y-13741484D02*
X2260301Y-13741484D01*
X2260301Y-13741484D02*
X2241253Y-13731960D01*
X2241253Y-13731960D02*
X2231729Y-13722436D01*
X2441253Y-13722436D02*
X2450777Y-13731960D01*
X2450777Y-13731960D02*
X2441253Y-13741484D01*
X2441253Y-13741484D02*
X2431729Y-13731960D01*
X2431729Y-13731960D02*
X2441253Y-13722436D01*
X2441253Y-13722436D02*
X2441253Y-13741484D01*
X2574586Y-13541484D02*
X2593634Y-13541484D01*
X2593634Y-13541484D02*
X2612682Y-13551008D01*
X2612682Y-13551008D02*
X2622205Y-13560531D01*
X2622205Y-13560531D02*
X2631729Y-13579579D01*
X2631729Y-13579579D02*
X2641253Y-13617674D01*
X2641253Y-13617674D02*
X2641253Y-13665293D01*
X2641253Y-13665293D02*
X2631729Y-13703388D01*
X2631729Y-13703388D02*
X2622205Y-13722436D01*
X2622205Y-13722436D02*
X2612682Y-13731960D01*
X2612682Y-13731960D02*
X2593634Y-13741484D01*
X2593634Y-13741484D02*
X2574586Y-13741484D01*
X2574586Y-13741484D02*
X2555539Y-13731960D01*
X2555539Y-13731960D02*
X2546015Y-13722436D01*
X2546015Y-13722436D02*
X2536491Y-13703388D01*
X2536491Y-13703388D02*
X2526967Y-13665293D01*
X2526967Y-13665293D02*
X2526967Y-13617674D01*
X2526967Y-13617674D02*
X2536491Y-13579579D01*
X2536491Y-13579579D02*
X2546015Y-13560531D01*
X2546015Y-13560531D02*
X2555539Y-13551008D01*
X2555539Y-13551008D02*
X2574586Y-13541484D01*
X2765063Y-13541484D02*
X2784110Y-13541484D01*
X2784110Y-13541484D02*
X2803158Y-13551008D01*
X2803158Y-13551008D02*
X2812682Y-13560531D01*
X2812682Y-13560531D02*
X2822205Y-13579579D01*
X2822205Y-13579579D02*
X2831729Y-13617674D01*
X2831729Y-13617674D02*
X2831729Y-13665293D01*
X2831729Y-13665293D02*
X2822205Y-13703388D01*
X2822205Y-13703388D02*
X2812682Y-13722436D01*
X2812682Y-13722436D02*
X2803158Y-13731960D01*
X2803158Y-13731960D02*
X2784110Y-13741484D01*
X2784110Y-13741484D02*
X2765063Y-13741484D01*
X2765063Y-13741484D02*
X2746015Y-13731960D01*
X2746015Y-13731960D02*
X2736491Y-13722436D01*
X2736491Y-13722436D02*
X2726967Y-13703388D01*
X2726967Y-13703388D02*
X2717444Y-13665293D01*
X2717444Y-13665293D02*
X2717444Y-13617674D01*
X2717444Y-13617674D02*
X2726967Y-13579579D01*
X2726967Y-13579579D02*
X2736491Y-13560531D01*
X2736491Y-13560531D02*
X2746015Y-13551008D01*
X2746015Y-13551008D02*
X2765063Y-13541484D01*
X2955539Y-13541484D02*
X2974586Y-13541484D01*
X2974586Y-13541484D02*
X2993634Y-13551008D01*
X2993634Y-13551008D02*
X3003158Y-13560531D01*
X3003158Y-13560531D02*
X3012682Y-13579579D01*
X3012682Y-13579579D02*
X3022205Y-13617674D01*
X3022205Y-13617674D02*
X3022205Y-13665293D01*
X3022205Y-13665293D02*
X3012682Y-13703388D01*
X3012682Y-13703388D02*
X3003158Y-13722436D01*
X3003158Y-13722436D02*
X2993634Y-13731960D01*
X2993634Y-13731960D02*
X2974586Y-13741484D01*
X2974586Y-13741484D02*
X2955539Y-13741484D01*
X2955539Y-13741484D02*
X2936491Y-13731960D01*
X2936491Y-13731960D02*
X2926967Y-13722436D01*
X2926967Y-13722436D02*
X2917443Y-13703388D01*
X2917443Y-13703388D02*
X2907920Y-13665293D01*
X2907920Y-13665293D02*
X2907920Y-13617674D01*
X2907920Y-13617674D02*
X2917443Y-13579579D01*
X2917443Y-13579579D02*
X2926967Y-13560531D01*
X2926967Y-13560531D02*
X2936491Y-13551008D01*
X2936491Y-13551008D02*
X2955539Y-13541484D01*
X3107920Y-13741484D02*
X3107920Y-13608150D01*
X3107920Y-13627198D02*
X3117443Y-13617674D01*
X3117443Y-13617674D02*
X3136491Y-13608150D01*
X3136491Y-13608150D02*
X3165063Y-13608150D01*
X3165063Y-13608150D02*
X3184110Y-13617674D01*
X3184110Y-13617674D02*
X3193634Y-13636722D01*
X3193634Y-13636722D02*
X3193634Y-13741484D01*
X3193634Y-13636722D02*
X3203158Y-13617674D01*
X3203158Y-13617674D02*
X3222205Y-13608150D01*
X3222205Y-13608150D02*
X3250777Y-13608150D01*
X3250777Y-13608150D02*
X3269824Y-13617674D01*
X3269824Y-13617674D02*
X3279348Y-13636722D01*
X3279348Y-13636722D02*
X3279348Y-13741484D01*
X3374586Y-13741484D02*
X3374586Y-13608150D01*
X3374586Y-13627198D02*
X3384110Y-13617674D01*
X3384110Y-13617674D02*
X3403158Y-13608150D01*
X3403158Y-13608150D02*
X3431729Y-13608150D01*
X3431729Y-13608150D02*
X3450777Y-13617674D01*
X3450777Y-13617674D02*
X3460301Y-13636722D01*
X3460301Y-13636722D02*
X3460301Y-13741484D01*
X3460301Y-13636722D02*
X3469824Y-13617674D01*
X3469824Y-13617674D02*
X3488872Y-13608150D01*
X3488872Y-13608150D02*
X3517443Y-13608150D01*
X3517443Y-13608150D02*
X3536491Y-13617674D01*
X3536491Y-13617674D02*
X3546015Y-13636722D01*
X3546015Y-13636722D02*
X3546015Y-13741484D01*
X3936491Y-13531960D02*
X3765063Y-13789103D01*
X4193634Y-13541484D02*
X4212682Y-13541484D01*
X4212682Y-13541484D02*
X4231729Y-13551008D01*
X4231729Y-13551008D02*
X4241253Y-13560531D01*
X4241253Y-13560531D02*
X4250777Y-13579579D01*
X4250777Y-13579579D02*
X4260301Y-13617674D01*
X4260301Y-13617674D02*
X4260301Y-13665293D01*
X4260301Y-13665293D02*
X4250777Y-13703388D01*
X4250777Y-13703388D02*
X4241253Y-13722436D01*
X4241253Y-13722436D02*
X4231729Y-13731960D01*
X4231729Y-13731960D02*
X4212682Y-13741484D01*
X4212682Y-13741484D02*
X4193634Y-13741484D01*
X4193634Y-13741484D02*
X4174586Y-13731960D01*
X4174586Y-13731960D02*
X4165063Y-13722436D01*
X4165063Y-13722436D02*
X4155539Y-13703388D01*
X4155539Y-13703388D02*
X4146015Y-13665293D01*
X4146015Y-13665293D02*
X4146015Y-13617674D01*
X4146015Y-13617674D02*
X4155539Y-13579579D01*
X4155539Y-13579579D02*
X4165063Y-13560531D01*
X4165063Y-13560531D02*
X4174586Y-13551008D01*
X4174586Y-13551008D02*
X4193634Y-13541484D01*
X4346015Y-13722436D02*
X4355539Y-13731960D01*
X4355539Y-13731960D02*
X4346015Y-13741484D01*
X4346015Y-13741484D02*
X4336491Y-13731960D01*
X4336491Y-13731960D02*
X4346015Y-13722436D01*
X4346015Y-13722436D02*
X4346015Y-13741484D01*
X4546015Y-13741484D02*
X4431729Y-13741484D01*
X4488872Y-13741484D02*
X4488872Y-13541484D01*
X4488872Y-13541484D02*
X4469825Y-13570055D01*
X4469825Y-13570055D02*
X4450777Y-13589103D01*
X4450777Y-13589103D02*
X4431729Y-13598627D01*
X4736491Y-13741484D02*
X4622206Y-13741484D01*
X4679348Y-13741484D02*
X4679348Y-13541484D01*
X4679348Y-13541484D02*
X4660301Y-13570055D01*
X4660301Y-13570055D02*
X4641253Y-13589103D01*
X4641253Y-13589103D02*
X4622206Y-13598627D01*
X4850777Y-13627198D02*
X4831729Y-13617674D01*
X4831729Y-13617674D02*
X4822206Y-13608150D01*
X4822206Y-13608150D02*
X4812682Y-13589103D01*
X4812682Y-13589103D02*
X4812682Y-13579579D01*
X4812682Y-13579579D02*
X4822206Y-13560531D01*
X4822206Y-13560531D02*
X4831729Y-13551008D01*
X4831729Y-13551008D02*
X4850777Y-13541484D01*
X4850777Y-13541484D02*
X4888872Y-13541484D01*
X4888872Y-13541484D02*
X4907920Y-13551008D01*
X4907920Y-13551008D02*
X4917444Y-13560531D01*
X4917444Y-13560531D02*
X4926968Y-13579579D01*
X4926968Y-13579579D02*
X4926968Y-13589103D01*
X4926968Y-13589103D02*
X4917444Y-13608150D01*
X4917444Y-13608150D02*
X4907920Y-13617674D01*
X4907920Y-13617674D02*
X4888872Y-13627198D01*
X4888872Y-13627198D02*
X4850777Y-13627198D01*
X4850777Y-13627198D02*
X4831729Y-13636722D01*
X4831729Y-13636722D02*
X4822206Y-13646246D01*
X4822206Y-13646246D02*
X4812682Y-13665293D01*
X4812682Y-13665293D02*
X4812682Y-13703388D01*
X4812682Y-13703388D02*
X4822206Y-13722436D01*
X4822206Y-13722436D02*
X4831729Y-13731960D01*
X4831729Y-13731960D02*
X4850777Y-13741484D01*
X4850777Y-13741484D02*
X4888872Y-13741484D01*
X4888872Y-13741484D02*
X4907920Y-13731960D01*
X4907920Y-13731960D02*
X4917444Y-13722436D01*
X4917444Y-13722436D02*
X4926968Y-13703388D01*
X4926968Y-13703388D02*
X4926968Y-13665293D01*
X4926968Y-13665293D02*
X4917444Y-13646246D01*
X4917444Y-13646246D02*
X4907920Y-13636722D01*
X4907920Y-13636722D02*
X4888872Y-13627198D01*
X5117444Y-13741484D02*
X5003158Y-13741484D01*
X5060301Y-13741484D02*
X5060301Y-13541484D01*
X5060301Y-13541484D02*
X5041253Y-13570055D01*
X5041253Y-13570055D02*
X5022206Y-13589103D01*
X5022206Y-13589103D02*
X5003158Y-13598627D01*
X5193634Y-13541484D02*
X5193634Y-13579579D01*
X5269825Y-13541484D02*
X5269825Y-13579579D01*
X5565063Y-13817674D02*
X5555539Y-13808150D01*
X5555539Y-13808150D02*
X5536491Y-13779579D01*
X5536491Y-13779579D02*
X5526968Y-13760531D01*
X5526968Y-13760531D02*
X5517444Y-13731960D01*
X5517444Y-13731960D02*
X5507920Y-13684341D01*
X5507920Y-13684341D02*
X5507920Y-13646246D01*
X5507920Y-13646246D02*
X5517444Y-13598627D01*
X5517444Y-13598627D02*
X5526968Y-13570055D01*
X5526968Y-13570055D02*
X5536491Y-13551008D01*
X5536491Y-13551008D02*
X5555539Y-13522436D01*
X5555539Y-13522436D02*
X5565063Y-13512912D01*
X5669825Y-13627198D02*
X5650777Y-13617674D01*
X5650777Y-13617674D02*
X5641253Y-13608150D01*
X5641253Y-13608150D02*
X5631729Y-13589103D01*
X5631729Y-13589103D02*
X5631729Y-13579579D01*
X5631729Y-13579579D02*
X5641253Y-13560531D01*
X5641253Y-13560531D02*
X5650777Y-13551008D01*
X5650777Y-13551008D02*
X5669825Y-13541484D01*
X5669825Y-13541484D02*
X5707920Y-13541484D01*
X5707920Y-13541484D02*
X5726968Y-13551008D01*
X5726968Y-13551008D02*
X5736491Y-13560531D01*
X5736491Y-13560531D02*
X5746015Y-13579579D01*
X5746015Y-13579579D02*
X5746015Y-13589103D01*
X5746015Y-13589103D02*
X5736491Y-13608150D01*
X5736491Y-13608150D02*
X5726968Y-13617674D01*
X5726968Y-13617674D02*
X5707920Y-13627198D01*
X5707920Y-13627198D02*
X5669825Y-13627198D01*
X5669825Y-13627198D02*
X5650777Y-13636722D01*
X5650777Y-13636722D02*
X5641253Y-13646246D01*
X5641253Y-13646246D02*
X5631729Y-13665293D01*
X5631729Y-13665293D02*
X5631729Y-13703388D01*
X5631729Y-13703388D02*
X5641253Y-13722436D01*
X5641253Y-13722436D02*
X5650777Y-13731960D01*
X5650777Y-13731960D02*
X5669825Y-13741484D01*
X5669825Y-13741484D02*
X5707920Y-13741484D01*
X5707920Y-13741484D02*
X5726968Y-13731960D01*
X5726968Y-13731960D02*
X5736491Y-13722436D01*
X5736491Y-13722436D02*
X5746015Y-13703388D01*
X5746015Y-13703388D02*
X5746015Y-13665293D01*
X5746015Y-13665293D02*
X5736491Y-13646246D01*
X5736491Y-13646246D02*
X5726968Y-13636722D01*
X5726968Y-13636722D02*
X5707920Y-13627198D01*
X5984110Y-13741484D02*
X5984110Y-13541484D01*
X6069825Y-13741484D02*
X6069825Y-13636722D01*
X6069825Y-13636722D02*
X6060301Y-13617674D01*
X6060301Y-13617674D02*
X6041253Y-13608150D01*
X6041253Y-13608150D02*
X6012682Y-13608150D01*
X6012682Y-13608150D02*
X5993634Y-13617674D01*
X5993634Y-13617674D02*
X5984110Y-13627198D01*
X6193634Y-13741484D02*
X6174587Y-13731960D01*
X6174587Y-13731960D02*
X6165063Y-13722436D01*
X6165063Y-13722436D02*
X6155539Y-13703388D01*
X6155539Y-13703388D02*
X6155539Y-13646246D01*
X6155539Y-13646246D02*
X6165063Y-13627198D01*
X6165063Y-13627198D02*
X6174587Y-13617674D01*
X6174587Y-13617674D02*
X6193634Y-13608150D01*
X6193634Y-13608150D02*
X6222206Y-13608150D01*
X6222206Y-13608150D02*
X6241253Y-13617674D01*
X6241253Y-13617674D02*
X6250777Y-13627198D01*
X6250777Y-13627198D02*
X6260301Y-13646246D01*
X6260301Y-13646246D02*
X6260301Y-13703388D01*
X6260301Y-13703388D02*
X6250777Y-13722436D01*
X6250777Y-13722436D02*
X6241253Y-13731960D01*
X6241253Y-13731960D02*
X6222206Y-13741484D01*
X6222206Y-13741484D02*
X6193634Y-13741484D01*
X6374587Y-13741484D02*
X6355539Y-13731960D01*
X6355539Y-13731960D02*
X6346015Y-13712912D01*
X6346015Y-13712912D02*
X6346015Y-13541484D01*
X6526968Y-13731960D02*
X6507920Y-13741484D01*
X6507920Y-13741484D02*
X6469825Y-13741484D01*
X6469825Y-13741484D02*
X6450777Y-13731960D01*
X6450777Y-13731960D02*
X6441253Y-13712912D01*
X6441253Y-13712912D02*
X6441253Y-13636722D01*
X6441253Y-13636722D02*
X6450777Y-13617674D01*
X6450777Y-13617674D02*
X6469825Y-13608150D01*
X6469825Y-13608150D02*
X6507920Y-13608150D01*
X6507920Y-13608150D02*
X6526968Y-13617674D01*
X6526968Y-13617674D02*
X6536491Y-13636722D01*
X6536491Y-13636722D02*
X6536491Y-13655769D01*
X6536491Y-13655769D02*
X6441253Y-13674817D01*
X6612682Y-13731960D02*
X6631730Y-13741484D01*
X6631730Y-13741484D02*
X6669825Y-13741484D01*
X6669825Y-13741484D02*
X6688872Y-13731960D01*
X6688872Y-13731960D02*
X6698396Y-13712912D01*
X6698396Y-13712912D02*
X6698396Y-13703388D01*
X6698396Y-13703388D02*
X6688872Y-13684341D01*
X6688872Y-13684341D02*
X6669825Y-13674817D01*
X6669825Y-13674817D02*
X6641253Y-13674817D01*
X6641253Y-13674817D02*
X6622206Y-13665293D01*
X6622206Y-13665293D02*
X6612682Y-13646246D01*
X6612682Y-13646246D02*
X6612682Y-13636722D01*
X6612682Y-13636722D02*
X6622206Y-13617674D01*
X6622206Y-13617674D02*
X6641253Y-13608150D01*
X6641253Y-13608150D02*
X6669825Y-13608150D01*
X6669825Y-13608150D02*
X6688872Y-13617674D01*
X6765063Y-13817674D02*
X6774587Y-13808150D01*
X6774587Y-13808150D02*
X6793634Y-13779579D01*
X6793634Y-13779579D02*
X6803158Y-13760531D01*
X6803158Y-13760531D02*
X6812682Y-13731960D01*
X6812682Y-13731960D02*
X6822206Y-13684341D01*
X6822206Y-13684341D02*
X6822206Y-13646246D01*
X6822206Y-13646246D02*
X6812682Y-13598627D01*
X6812682Y-13598627D02*
X6803158Y-13570055D01*
X6803158Y-13570055D02*
X6793634Y-13551008D01*
X6793634Y-13551008D02*
X6774587Y-13522436D01*
X6774587Y-13522436D02*
X6765063Y-13512912D01*
X7126968Y-13817674D02*
X7117444Y-13808150D01*
X7117444Y-13808150D02*
X7098396Y-13779579D01*
X7098396Y-13779579D02*
X7088872Y-13760531D01*
X7088872Y-13760531D02*
X7079349Y-13731960D01*
X7079349Y-13731960D02*
X7069825Y-13684341D01*
X7069825Y-13684341D02*
X7069825Y-13646246D01*
X7069825Y-13646246D02*
X7079349Y-13598627D01*
X7079349Y-13598627D02*
X7088872Y-13570055D01*
X7088872Y-13570055D02*
X7098396Y-13551008D01*
X7098396Y-13551008D02*
X7117444Y-13522436D01*
X7117444Y-13522436D02*
X7126968Y-13512912D01*
X7203158Y-13608150D02*
X7203158Y-13741484D01*
X7203158Y-13627198D02*
X7212682Y-13617674D01*
X7212682Y-13617674D02*
X7231730Y-13608150D01*
X7231730Y-13608150D02*
X7260301Y-13608150D01*
X7260301Y-13608150D02*
X7279349Y-13617674D01*
X7279349Y-13617674D02*
X7288872Y-13636722D01*
X7288872Y-13636722D02*
X7288872Y-13741484D01*
X7412682Y-13741484D02*
X7393634Y-13731960D01*
X7393634Y-13731960D02*
X7384111Y-13722436D01*
X7384111Y-13722436D02*
X7374587Y-13703388D01*
X7374587Y-13703388D02*
X7374587Y-13646246D01*
X7374587Y-13646246D02*
X7384111Y-13627198D01*
X7384111Y-13627198D02*
X7393634Y-13617674D01*
X7393634Y-13617674D02*
X7412682Y-13608150D01*
X7412682Y-13608150D02*
X7441253Y-13608150D01*
X7441253Y-13608150D02*
X7460301Y-13617674D01*
X7460301Y-13617674D02*
X7469825Y-13627198D01*
X7469825Y-13627198D02*
X7479349Y-13646246D01*
X7479349Y-13646246D02*
X7479349Y-13703388D01*
X7479349Y-13703388D02*
X7469825Y-13722436D01*
X7469825Y-13722436D02*
X7460301Y-13731960D01*
X7460301Y-13731960D02*
X7441253Y-13741484D01*
X7441253Y-13741484D02*
X7412682Y-13741484D01*
X7536492Y-13608150D02*
X7612682Y-13608150D01*
X7565063Y-13541484D02*
X7565063Y-13712912D01*
X7565063Y-13712912D02*
X7574587Y-13731960D01*
X7574587Y-13731960D02*
X7593634Y-13741484D01*
X7593634Y-13741484D02*
X7612682Y-13741484D01*
X7831730Y-13608150D02*
X7831730Y-13808150D01*
X7831730Y-13617674D02*
X7850777Y-13608150D01*
X7850777Y-13608150D02*
X7888873Y-13608150D01*
X7888873Y-13608150D02*
X7907920Y-13617674D01*
X7907920Y-13617674D02*
X7917444Y-13627198D01*
X7917444Y-13627198D02*
X7926968Y-13646246D01*
X7926968Y-13646246D02*
X7926968Y-13703388D01*
X7926968Y-13703388D02*
X7917444Y-13722436D01*
X7917444Y-13722436D02*
X7907920Y-13731960D01*
X7907920Y-13731960D02*
X7888873Y-13741484D01*
X7888873Y-13741484D02*
X7850777Y-13741484D01*
X7850777Y-13741484D02*
X7831730Y-13731960D01*
X8041253Y-13741484D02*
X8022206Y-13731960D01*
X8022206Y-13731960D02*
X8012682Y-13712912D01*
X8012682Y-13712912D02*
X8012682Y-13541484D01*
X8203158Y-13741484D02*
X8203158Y-13636722D01*
X8203158Y-13636722D02*
X8193634Y-13617674D01*
X8193634Y-13617674D02*
X8174587Y-13608150D01*
X8174587Y-13608150D02*
X8136492Y-13608150D01*
X8136492Y-13608150D02*
X8117444Y-13617674D01*
X8203158Y-13731960D02*
X8184111Y-13741484D01*
X8184111Y-13741484D02*
X8136492Y-13741484D01*
X8136492Y-13741484D02*
X8117444Y-13731960D01*
X8117444Y-13731960D02*
X8107920Y-13712912D01*
X8107920Y-13712912D02*
X8107920Y-13693865D01*
X8107920Y-13693865D02*
X8117444Y-13674817D01*
X8117444Y-13674817D02*
X8136492Y-13665293D01*
X8136492Y-13665293D02*
X8184111Y-13665293D01*
X8184111Y-13665293D02*
X8203158Y-13655769D01*
X8269825Y-13608150D02*
X8346015Y-13608150D01*
X8298396Y-13541484D02*
X8298396Y-13712912D01*
X8298396Y-13712912D02*
X8307920Y-13731960D01*
X8307920Y-13731960D02*
X8326968Y-13741484D01*
X8326968Y-13741484D02*
X8346015Y-13741484D01*
X8488873Y-13731960D02*
X8469825Y-13741484D01*
X8469825Y-13741484D02*
X8431730Y-13741484D01*
X8431730Y-13741484D02*
X8412682Y-13731960D01*
X8412682Y-13731960D02*
X8403158Y-13712912D01*
X8403158Y-13712912D02*
X8403158Y-13636722D01*
X8403158Y-13636722D02*
X8412682Y-13617674D01*
X8412682Y-13617674D02*
X8431730Y-13608150D01*
X8431730Y-13608150D02*
X8469825Y-13608150D01*
X8469825Y-13608150D02*
X8488873Y-13617674D01*
X8488873Y-13617674D02*
X8498396Y-13636722D01*
X8498396Y-13636722D02*
X8498396Y-13655769D01*
X8498396Y-13655769D02*
X8403158Y-13674817D01*
X8669825Y-13741484D02*
X8669825Y-13541484D01*
X8669825Y-13731960D02*
X8650777Y-13741484D01*
X8650777Y-13741484D02*
X8612682Y-13741484D01*
X8612682Y-13741484D02*
X8593635Y-13731960D01*
X8593635Y-13731960D02*
X8584111Y-13722436D01*
X8584111Y-13722436D02*
X8574587Y-13703388D01*
X8574587Y-13703388D02*
X8574587Y-13646246D01*
X8574587Y-13646246D02*
X8584111Y-13627198D01*
X8584111Y-13627198D02*
X8593635Y-13617674D01*
X8593635Y-13617674D02*
X8612682Y-13608150D01*
X8612682Y-13608150D02*
X8650777Y-13608150D01*
X8650777Y-13608150D02*
X8669825Y-13617674D01*
X8746016Y-13817674D02*
X8755539Y-13808150D01*
X8755539Y-13808150D02*
X8774587Y-13779579D01*
X8774587Y-13779579D02*
X8784111Y-13760531D01*
X8784111Y-13760531D02*
X8793635Y-13731960D01*
X8793635Y-13731960D02*
X8803158Y-13684341D01*
X8803158Y-13684341D02*
X8803158Y-13646246D01*
X8803158Y-13646246D02*
X8793635Y-13598627D01*
X8793635Y-13598627D02*
X8784111Y-13570055D01*
X8784111Y-13570055D02*
X8774587Y-13551008D01*
X8774587Y-13551008D02*
X8755539Y-13522436D01*
X8755539Y-13522436D02*
X8746016Y-13512912D01*
M02*
