M48
; DRILL file {KiCad 9.0.0} date 2025-04-08T11:49:49-0400
; FORMAT={-:-/ absolute / metric / decimal}
; #@! TF.CreationDate,2025-04-08T11:49:49-04:00
; #@! TF.GenerationSoftware,Kicad,Pcbnew,9.0.0
; #@! TF.FileFunction,Plated,1,2,PTH
FMAT,2
METRIC
; #@! TA.AperFunction,Plated,PTH,ComponentDrill
T1C0.750
; #@! TA.AperFunction,Plated,PTH,ComponentDrill
T2C0.800
; #@! TA.AperFunction,Plated,PTH,ComponentDrill
T3C0.813
; #@! TA.AperFunction,Plated,PTH,ComponentDrill
T4C0.914
; #@! TA.AperFunction,Plated,PTH,ComponentDrill
T5C0.950
; #@! TA.AperFunction,Plated,PTH,ComponentDrill
T6C1.000
; #@! TA.AperFunction,Plated,PTH,ComponentDrill
T7C1.016
; #@! TA.AperFunction,Plated,PTH,ComponentDrill
T8C1.020
; #@! TA.AperFunction,Plated,PTH,ComponentDrill
T9C1.295
; #@! TA.AperFunction,Plated,PTH,ComponentDrill
T10C1.300
%
G90
G05
T1
X34.748Y-76.438
X34.748Y-77.708
X34.748Y-78.978
X39.815Y-85.105
X39.815Y-86.375
X39.815Y-87.645
X40.49Y-76.33
X40.49Y-77.6
X40.49Y-78.87
X48.983Y-66.926
X48.983Y-68.196
X48.983Y-69.466
X67.5Y-66.971
X67.5Y-68.241
X67.5Y-69.511
X86.375Y-67.026
X86.375Y-68.296
X86.375Y-69.566
X104.808Y-67.443
X104.808Y-68.713
X104.808Y-69.983
X123.523Y-67.563
X123.523Y-68.833
X123.523Y-70.103
X141.798Y-67.658
X141.798Y-68.928
X141.798Y-70.198
X152.683Y-60.158
X152.683Y-61.428
X152.683Y-62.698
T2
X84.79Y-111.94
X84.79Y-115.44
X105.515Y-112.483
X105.515Y-114.983
T3
X32.39Y-119.731
X32.39Y-124.811
X78.44Y-87.694
X78.44Y-92.774
X91.379Y-92.2
X96.459Y-92.2
X123.39Y-101.465
X128.47Y-101.465
T4
X144.4Y-82.175
X152.0Y-82.175
T5
X38.215Y-122.115
X40.715Y-122.115
X43.215Y-122.115
X45.715Y-122.115
X48.215Y-122.115
X50.715Y-122.115
X53.215Y-122.115
X55.715Y-122.115
X58.215Y-122.115
X60.715Y-122.115
X63.215Y-122.115
X65.715Y-122.115
X68.215Y-122.115
X70.715Y-122.115
X73.215Y-122.115
X75.715Y-122.115
X78.215Y-122.115
X80.715Y-122.115
X83.215Y-122.115
X85.715Y-122.115
X126.49Y-122.64
X128.99Y-122.64
X131.49Y-122.64
X133.99Y-122.64
X142.49Y-122.59
X144.99Y-122.59
X147.49Y-122.59
X149.99Y-122.59
X159.55Y-50.475
X159.55Y-52.975
X159.55Y-55.475
X159.55Y-62.575
X159.55Y-65.075
X159.55Y-67.575
X159.625Y-38.525
X159.625Y-41.025
X159.625Y-43.525
X159.625Y-74.375
X159.625Y-76.875
X159.625Y-79.375
X164.3Y-87.95
X164.3Y-90.45
X164.3Y-92.95
X164.3Y-95.45
X164.3Y-102.625
X164.3Y-105.125
X164.3Y-107.625
X164.3Y-110.125
T6
X25.525Y-82.725
X25.525Y-85.225
X48.025Y-78.75
X50.525Y-78.75
X106.35Y-77.625
X106.4Y-85.325
X108.85Y-77.625
X108.9Y-85.325
X113.065Y-114.965
X113.09Y-97.54
X113.09Y-106.24
X115.565Y-114.965
X115.59Y-97.54
X115.59Y-106.24
X115.75Y-85.325
X118.25Y-85.325
X123.94Y-93.965
X125.3Y-85.325
X126.44Y-93.965
X127.8Y-85.325
X134.925Y-85.35
X137.425Y-85.35
X144.7Y-93.775
X147.2Y-93.775
X151.575Y-28.525
X154.075Y-28.525
T7
X22.99Y-92.19
X22.99Y-115.05
X25.53Y-92.19
X25.53Y-115.05
X28.07Y-92.19
X28.07Y-115.05
X30.61Y-92.19
X30.61Y-115.05
X33.15Y-92.19
X33.15Y-115.05
X35.69Y-92.19
X35.69Y-115.05
X38.23Y-92.19
X38.23Y-115.05
X40.77Y-92.19
X40.77Y-115.05
X43.31Y-92.19
X43.31Y-115.05
X45.85Y-92.19
X45.85Y-115.05
X48.39Y-92.19
X48.39Y-115.05
X50.93Y-92.19
X50.93Y-115.05
X53.47Y-92.19
X53.47Y-115.05
X56.01Y-92.19
X56.01Y-115.05
X58.55Y-92.19
X58.55Y-115.05
X61.09Y-92.19
X61.09Y-115.05
X63.63Y-92.19
X63.63Y-115.05
T8
X41.13Y-30.12
X41.13Y-33.12
X53.946Y-30.11
X53.946Y-33.11
X66.725Y-30.345
X66.725Y-33.345
X79.504Y-30.345
X79.504Y-33.345
X101.175Y-30.32
X101.175Y-33.32
X113.954Y-30.32
X113.954Y-33.32
X126.733Y-30.32
X126.733Y-33.32
X139.512Y-30.32
X139.512Y-33.32
T9
X26.795Y-40.463
X26.795Y-45.463
X26.795Y-50.463
X26.795Y-65.463
X34.295Y-40.463
X34.295Y-45.463
X34.295Y-50.463
X34.295Y-65.463
X41.131Y-41.777
X41.131Y-53.969
X47.125Y-55.976
X53.119Y-41.777
X53.119Y-53.969
X59.6Y-41.767
X59.6Y-53.959
X65.594Y-55.966
X71.589Y-41.767
X71.589Y-53.959
X78.356Y-41.927
X78.356Y-54.119
X84.35Y-56.126
X90.344Y-41.927
X90.344Y-54.119
X97.015Y-42.109
X97.015Y-54.301
X103.009Y-56.308
X109.004Y-42.109
X109.004Y-54.301
X115.482Y-42.109
X115.482Y-54.301
X121.477Y-56.308
X127.471Y-42.109
X127.471Y-54.301
X133.95Y-42.109
X133.95Y-54.301
X139.944Y-56.308
X145.938Y-42.109
X145.938Y-54.301
T10
X25.263Y-71.308
X39.555Y-61.776
X40.503Y-71.308
X44.88Y-86.575
X54.795Y-61.776
X58.024Y-61.766
X60.12Y-86.575
X73.264Y-61.766
X76.78Y-61.926
X92.02Y-61.926
X95.439Y-62.108
X103.985Y-123.0
X110.679Y-62.108
X113.907Y-62.108
X119.225Y-123.0
X129.147Y-62.108
X132.374Y-62.108
X147.614Y-62.108
X153.083Y-39.988
X153.083Y-55.228
M30
